<?xml version="1.0" encoding="utf-8"?>
<!-- Generator: Adobe Illustrator 26.0.1, SVG Export Plug-In . SVG Version: 6.00 Build 0)  -->
<svg version="1.1"
	 id="svg1867" inkscape:export-filename="C:\Users\suitedoalex\sites\agibank-logo-0.png" inkscape:export-ydpi="148.6263" inkscape:version="0.92.4 (5da689c313, 2019-01-14)" xmlns:cc="http://creativecommons.org/ns#" xmlns:dc="http://purl.org/dc/elements/1.1/" xmlns:inkscape="http://www.inkscape.org/namespaces/inkscape" xmlns:rdf="http://www.w3.org/1999/02/22-rdf-syntax-ns#" xmlns:sodipodi="http://sodipodi.sourceforge.net/DTD/sodipodi-0.dtd" xmlns:svg="http://www.w3.org/2000/svg"
	 xmlns="http://www.w3.org/2000/svg" xmlns:xlink="http://www.w3.org/1999/xlink" x="0px" y="0px" viewBox="0 0 1984.3 1984.3"
	 style="enable-background:new 0 0 1984.3 1984.3;" xml:space="preserve">
<style type="text/css">
	.st0{fill:#78CA35;}
	.st1{fill:#3E6DBE;}
	.st2{fill:#253165;}
</style>
<sodipodi:namedview  bordercolor="#666666" borderopacity="1.0" id="base" inkscape:current-layer="layer1" inkscape:cx="1299.8901" inkscape:cy="1925.0117" inkscape:document-units="mm" inkscape:pageopacity="0.0" inkscape:pageshadow="2" inkscape:window-height="837" inkscape:window-maximized="1" inkscape:window-width="1600" inkscape:window-x="-8" inkscape:window-y="-8" inkscape:zoom="0.12374369" pagecolor="#ffffff" showgrid="false">
	</sodipodi:namedview>
<g id="g956" transform="matrix(7.4702659,0,0,-7.4702659,623.99213,-77.453695)">
</g>
<g>
	<g>
		<g id="g940" transform="matrix(7.4702659,0,0,-7.4702659,177.42789,-69.960725)">
			<path id="path942" inkscape:connector-curvature="0" class="st0" d="M162.6-78.3l-42.3-42.3c-2.9-2.9-6.9-4.6-11-4.6
				c-4.2,0-8.1,1.6-11,4.6L55.7-78l-0.2-38l23.7-23.7c8-8,18.7-12.5,30.1-12.5c11.4,0,22.1,4.4,30.1,12.5l23.2,23.2V-78.3z"/>
		</g>
		<g id="g944" transform="matrix(7.4702659,0,0,-7.4702659,156.49776,-90.920295)">
			<path id="path946" inkscape:connector-curvature="0" class="st1" d="M142-57.7c-8,8-18.4,12.1-29,12.4
				c-11.3,0.3-22.7-3.8-31.3-12.4L58.3-81.1l19.3-18.8l0,0l23.2,23.2c3,3,7,4.6,11,4.6c4,0,8-1.5,11-4.6l42.6-42.6l0,38.2L142-57.7z
				"/>
		</g>
		<g id="g948" transform="matrix(7.4702659,0,0,-7.4702659,177.42789,-35.826785)">
			<path id="path950" inkscape:connector-curvature="0" class="st2" d="M162.6-111.9v38.2l-19.1-19.1L162.6-111.9z"/>
		</g>
		<g id="g952" transform="matrix(7.4702659,0,0,-7.4702659,81.715007,-36.278885)">
			<path id="path954" inkscape:connector-curvature="0" class="st2" d="M68.3-111.5l0.3-0.3l19.1,19.1L68.6-73.5l-0.3-0.3V-111.5z"
				/>
		</g>
	</g>
	<g>
		<g id="g960" transform="matrix(7.4702659,0,0,-7.4702659,265.96248,-23.453695)">
			<path id="path962" inkscape:connector-curvature="0" class="st2" d="M5.2-220.8h-9.1v3.8c-2.3-2.8-5.6-4.7-10.4-4.7
				c-9.5,0-16.7,7.8-16.7,18.2c0,10.4,7.2,18.2,16.7,18.2c4.8,0,8.1-1.9,10.4-4.7v3.8h9.1V-220.8z M-21.5-203.5
				c0-5.3,3.5-9.5,8.9-9.5c5.3,0,8.9,4.1,8.9,9.5s-3.6,9.5-8.9,9.5C-18-193.9-21.5-198.2-21.5-203.5"/>
		</g>
		<g id="g964" transform="matrix(7.4702659,0,0,-7.4702659,318.34911,-72.609155)">
			<path id="path966" inkscape:connector-curvature="0" class="st2" d="M30.9-196.6v3.9h9.1v-31.7c0-11.1-7.2-17.8-18.7-17.8
				c-5.5,0-11.2,1.4-15.1,4.2l3.3,7.6c3.5-2.3,7.3-3.5,11.4-3.5c5.8,0,9.9,3.2,9.9,9.2v2.4c-2.4-2.9-5.9-4.7-10.6-4.7
				c-8.4,0-15.9,7-15.9,17.6c0,10.6,7.5,17.7,15.9,17.7C25-191.8,28.6-193.7,30.9-196.6 M13.9-209.5c0-5,3.4-9.1,8.7-9.1
				c5.2,0,8.7,3.9,8.7,9.1c0,5.2-3.5,9.1-8.7,9.1C17.3-200.4,13.9-204.5,13.9-209.5"/>
		</g>
		<g id="g968" transform="matrix(7.4702659,0,0,-7.4702659,362.86373,-96.873165)">
			<path id="path970" inkscape:connector-curvature="0" class="st2" d="M52.8-184.7c0-3.4-2.6-5.9-6-5.9c-3.4,0-5.9,2.6-5.9,5.9
				c0,3.4,2.6,6,5.9,6C50.2-178.7,52.8-181.4,52.8-184.7 M51.5-230.6h-9.3v34.6h9.3V-230.6z"/>
		</g>
		<g id="g972" transform="matrix(7.4702659,0,0,-7.4702659,428.76863,-50.059935)">
			<path id="path974" inkscape:connector-curvature="0" class="st2" d="M85.2-207.7c0-9.8-7.3-17-16.9-17c-6.3,0-11.4,3.3-14.2,8.1
				v-7.8h-2.5v51.4h2.5v-25.9c2.7,4.9,7.8,8.2,14.2,8.2C77.8-190.6,85.2-197.9,85.2-207.7 M53.9-207.7c0-8.3,6.1-14.7,14.3-14.7
				c8.3,0,14.3,6.4,14.3,14.7c0,8.3-6.1,14.7-14.3,14.7C60-193,53.9-199.3,53.9-207.7"/>
		</g>
		<g id="g976" transform="matrix(7.4702659,0,0,-7.4702659,492.37577,-23.453695)">
			<path id="path978" inkscape:connector-curvature="0" class="st2" d="M116.4-220.8h-2.5v7.8c-2.8-4.9-7.9-8.2-14.2-8.2
				c-9.6,0-16.9,7.2-16.9,17c0,9.8,7.3,17.1,16.9,17.1c6.4,0,11.5-3.3,14.2-8.2v7.8h2.5V-220.8z M85.4-204.1
				c0-8.3,6.1-14.7,14.3-14.7c8.2,0,14.3,6.3,14.3,14.7c0,8.4-6.1,14.7-14.3,14.7C91.4-189.4,85.4-195.8,85.4-204.1"/>
		</g>
		<g id="g980" transform="matrix(7.4702659,0,0,-7.4702659,556.92332,-54.684895)">
			<path id="path982" inkscape:connector-curvature="0" class="st2" d="M148.1-205.4V-225h-2.5v19.5c0,7-4.3,11.8-12.2,11.8
				c-7.2,0-12.2-5.3-12.2-12.1V-225h-2.5v33.3h2.5v-6.4c2.4,4,6.7,6.8,12.5,6.8C142.6-191.3,148.1-196.8,148.1-205.4"/>
		</g>
		<g id="g984" transform="matrix(7.4702659,0,0,-7.4702659,577.91931,-53.255115)">
			<path id="path986" inkscape:connector-curvature="0" class="st2" d="M158.4-206.1h6.2l15.5,14.7h3.2l-16.8-15.7l17.1-17.6h-3.2
				l-15.9,16.3h-6.1v-16.3h-2.5v51.4h2.5V-206.1z"/>
		</g>
	</g>
</g>
</svg>
