<?xml version="1.0" encoding="utf-8"?>
<!-- Generator: Adobe Illustrator 26.0.1, SVG Export Plug-In . SVG Version: 6.00 Build 0)  -->
<svg version="1.1" id="Camada_1" xmlns="http://www.w3.org/2000/svg" xmlns:xlink="http://www.w3.org/1999/xlink" x="0px" y="0px"
	 viewBox="0 0 1000 1000" style="enable-background:new 0 0 1000 1000;" xml:space="preserve">
<style type="text/css">
	.st0{fill:#FDFEFE;}
	.st1{fill:#052159;}
	.st2{fill:#07235A;}
	.st3{fill:#86878A;}
	.st4{fill:#FCFDFD;}
	.st5{fill:#FBFBFC;}
</style>
<g>
	<path class="st0" d="M499.7,164.2c163.9,0,327.8,0.1,491.6-0.2c7.3,0,8.6,1.7,8.6,8.7c-0.2,218.1-0.2,436.3,0,654.4
		c0,6.8-0.9,8.9-8.5,8.9c-327.8-0.3-655.5-0.3-983.3,0c-6.9,0-8.1-1.5-8.1-8.2C0.3,609.3,0.3,390.8,0,172.4c0-8.2,2.8-8.3,9.1-8.3
		C172.6,164.2,336.2,164.2,499.7,164.2z M98.4,681.6c13.9,0.1,27.9,0,41.8,0.4c5.4,0.2,7.6-1.1,7.4-7c-0.5-11.6-0.5-23.2,0-34.8
		c0.2-6.3-2.2-7.9-8.1-7.8c-13.6,0.4-27.2,0.3-40.8,0.4c-14.3-0.1-28.6-0.1-42.9-0.5c-5.6-0.2-7.7,1.6-7.5,7.4
		c0.4,11.6,0.3,23.3,0,34.9c-0.2,5.5,1.4,7.7,7.2,7.5C69.7,681.6,84.1,681.7,98.4,681.6z M48.2,530.5
		C48.3,530.5,48.3,530.5,48.2,530.5c0.1,20.3,0.3,40.6-0.1,60.9c-0.1,6.1,1.6,8,7.8,7.9c18.3-0.4,36.6,0.2,54.9-1.3
		c21.3-1.7,37.9-10.9,50-28.7c9.4-13.9,14-29.4,15-45.9c2.6-42.5-18.4-68.6-60.6-74.2c-26.8-3.5-53.9-1.3-80.9-1.7
		c-2,0-4-0.2-4.2,2.8c-0.2,3.4,1.8,3.7,4.4,3.7c11.5-0.2,13.6,7.2,13.6,16.5C48.2,490.5,48.2,510.5,48.2,530.5z M601.2,602.1
		c32.6,0.2,56.2-23.4,56.6-56.7c0.3-33.9-23.3-58.7-55.8-58.6c-31.9,0.1-55,23.8-55.5,56.9C546,577.2,569.1,601.8,601.2,602.1z
		 M259.3,581.6c8.4,20.5,19.7,25.7,35.7,17.1c2.2-1.2,4.2-2.2,3.8-5c-0.4-2.9-2.7-2.1-4.6-2.3c-13.2-1.6-15-3.3-16.4-16.5
		c-2.1-18.9-0.6-37.9-0.9-56.8c-0.5-23.9-10.4-33-34.3-31.2c-3.3,0.3-6.7,0.5-9.9,1.3c-15.2,3.7-27.9,10.7-33.2,26.7
		c-0.7,2.2-2.5,5.4,1,6.8c4.9,2,19.3-7.4,19.7-12.8c0.5-6.5,4-10.4,9.9-12.2c15.9-4.8,27.8,3.7,28.3,20.2c0.1,1.7-0.2,3.4,0.2,5
		c2.1,10.7-2,16.1-13,18.3c-12.3,2.5-24.3,6.9-35,13.9c-13.2,8.6-17.6,21.5-11.8,34.2c5.4,11.8,18.5,16.6,33.2,12.7
		C243.3,597.7,251.4,589.9,259.3,581.6z M863.9,581.3c7.1,20.6,20.7,26.5,36.2,17.1c1.8-1.1,3.5-2.1,3.4-4.4
		c-0.1-2.9-2.3-2.4-4.3-2.7c-14.5-2-16.9-4.2-17.2-18.8c-0.4-18-0.2-36-0.4-54c-0.2-23.9-10.3-33.3-34.2-31.7
		c-3.7,0.2-7.4,0.5-10.9,1.3c-14.6,3.5-26.6,10.6-32.4,25.3c-0.9,2.3-2.8,6,0.6,8.1c3.4,2.1,19.1-6.7,19.4-10.9
		c0.5-7.1,3.6-12.1,10.5-14.2c11.2-3.5,24.6,1.8,27.3,10.5c5.6,18.4,1.4,28.6-13.2,33c-13.7,4.1-27.5,8-38.7,17.6
		c-8.6,7.4-11.3,18.6-7.4,29c3.7,9.9,12.7,15.6,24.4,15.5C842.6,601.9,853.4,592.8,863.9,581.3z M374.5,574.6
		c-11.3-24.6-21.9-47.3-32.1-70.2c-2.4-5.4,1.2-7.9,6.5-8.2c2.2-0.1,3.8-0.6,3.8-3.4c0-3-2-3-4-3c-12.3,0-24.6,0-36.9,0
		c-1.9,0-4.2-0.3-4.4,2.6c-0.1,1.8,0.3,3.2,2.4,3.6c8.4,1.8,11,9.3,14.2,15.6c12.9,26.2,25.5,52.5,38.1,78.8c1,2,2.3,3.9,1.8,6.5
		c-3,16.7-22.5,32-40,29.4c-8.7-1.3-12.4,1.5-16,8.5c-3.2,6.1-3.2,8.3,4.5,9.1c23.1,2.3,39.2-5.6,49.8-26.7
		c17.7-35.3,34.6-70.9,52-106.4c3-6.2,5.5-13.1,13.5-14.8c2.1-0.5,2.5-1.7,2.5-3.5c0-3-2.2-2.8-4.2-2.8c-8.3,0-16.6,0-25,0
		c-1.8,0-4.2-0.4-4.5,2.5c-0.3,2.5,1.2,3.4,3.5,3.8c8.3,1.3,8.2,6.8,5.5,12.6C395.7,530.1,385.5,551.3,374.5,574.6z M91,367.2
		c5.3-3.9,11.3-6.4,15.6-11c13.1-13.9,9.4-34.3-7.9-38.2c-19.9-4.4-40.4-1.2-60.6-1.8c-1.4,0-2.8,0.3-2.9,2
		c-0.2,1.5,0.9,2.7,2.2,2.8c12.6,0.8,10.9,10.2,10.9,18.3c0,27.6,0,55.2,0,82.7c0,3.8-1.2,8.3,5.4,8.1c11.3-0.3,22.7,0.5,33.9-0.5
		c16.6-1.4,27.7-11,30.2-24.4c2.6-14.1-4.4-27-18.5-34.2C96.8,369.7,94,368.6,91,367.2z M734.6,577c-11.8-25.5-22.8-48.9-33.5-72.3
		c-3.1-6.7,1.7-8.1,6.9-8.5c2.4-0.2,3.6-1.2,3.4-3.7c-0.2-2.3-1.9-2.5-3.5-2.5c-13,0-26,0-39,0c-2,0-3.2,0.7-3.1,2.8
		c0,1.3-0.2,2.8,1.6,3.2c11.4,2.5,13.7,12.9,17.8,21.2c12.6,25.2,24.5,50.9,36.9,76.2c1.7,3.4,1.6,9.1,7.9,8.8
		c6.1-0.3,5.6-6,7.2-9.4c11.8-26.4,23.1-52.9,34.8-79.3c3-6.8,5.3-14.7,14-17.1c2-0.5,2.7-1.6,2.6-3.5c0-3-2.2-2.8-4.2-2.8
		c-9.3,0-18.7,0-28,0c-1.8,0-4.1-0.4-4.4,2.6c-0.3,3.5,2.1,3.4,4.5,3.7c8.2,0.9,8.7,6,6.2,12.2C753.8,530.5,744.7,552.5,734.6,577z
		 M521,513.7c2.9-2.9,5.5-6,8.6-8.5c5.7-4.6,4-7.5-1.6-10.6c-13.4-7.4-27.6-9-42.5-6.7c-26.6,4.2-46.8,27.9-47.6,56
		c-0.8,30.4,15,51.5,43.2,57.1c14.3,2.8,28.4,0.5,42.3-3.4c6.3-1.8,8.9-4.8,6-11.6c-3.2,1-6.3,2.1-9.5,3
		c-25.2,6.9-45.4,0.5-54.3-18.5c-9.2-19.6-9.2-40.1-0.1-59.8c8.8-19.1,29.9-22.6,45.5-8.3C514.8,505.9,517.7,509.9,521,513.7z
		 M913.7,451.8c9.7,5.3,17.6,9.9,17.5,21.9c-0.1,34.6,0.1,69.2,0,103.8c0,8.2-2.6,15.3-13,15.3c-2.3,0-5,0.1-4.8,3.5
		c0.2,3.5,3,2.9,5.2,2.9c14.6,0,29.3,0,43.9,0c2.1,0,5,0.8,5.2-2.8c0.3-3.5-2.4-3.6-4.7-3.6c-11.4-0.2-13.3-7.6-13.3-16.9
		c0.1-33.3,0-66.5,0-99.8c0-12.2,0-24.5,0-37.8C937.1,443,925.4,447.4,913.7,451.8z M218.3,356.7c9.3,3.3,15,6.6,15,14.7
		c0,14.3,0.3,28.6,0,42.9c-0.1,5.1-1.6,10.1-8.4,10.3c-2,0.1-4.6,0.4-4.4,3c0.2,3.5,3.5,2.4,5.5,2.4c10,0.1,20,0.1,30,0
		c1.8,0,4.5,0.7,4.8-2.1c0.3-2.6-2.1-3.1-4.1-3.2c-7.9-0.4-8.8-5.8-8.8-11.9c0-10.7,0-21.3,0-32c0-14.8,4-19.7,18.6-22.7
		c14.1-2.9,21.2,2.3,21.6,16.8c0.4,12.6,0.1,25.3,0.1,38c0,6.2-1.8,11.2-9.2,11.9c-1.9,0.2-4.3,0.6-3.8,3.4c0.4,2.2,2.6,1.7,4.1,1.8
		c10.7,0.1,21.3,0.1,32,0c1.5,0,3.7,0.5,4.1-1.7c0.6-2.8-1.9-3.3-3.7-3.5c-8.1-0.7-9.3-6.3-9.3-12.8c0-12.7,0.1-25.3-0.2-38
		c-0.2-10.2-1.8-20.4-12.1-25.7c-10.7-5.5-20.6-2-30.1,3.9c-3.7,2.3-6.4,6.6-11.7,7.2c-0.1-2.2-0.5-3.9-0.3-5.5
		c0.9-7.7-2.2-8.4-8.4-5.5C233.4,351.2,227.1,353.3,218.3,356.7z M447.8,432.1c24.5,0.1,42.1-17.9,42.1-43.2
		c0-24.9-17.2-42.9-41.1-43.1c-24.9-0.2-42.3,17.2-42.5,42.6C406,413.9,423.3,432.1,447.8,432.1z M181.3,417.7
		c7.4,14.2,16.4,18,26.6,12.2c1.3-0.8,2.8-2,3.3-3.4c0.5-1.4-0.9-2.4-2.4-2.3c-13.7,0.5-13-9.5-13.4-18.5c-0.6-14.6,0.7-29.3-1-43.9
		c-0.9-7.9-4.9-13.4-12.6-14.9c-10.9-2.1-21.9-1.9-31.9,4.2c-5.8,3.5-10.8,7.9-13,14.6c-0.7,2-1.6,6.2,1,5.7
		c5.2-1.1,13,0.1,14.2-7.8c1.4-8.9,6.9-11.9,14.7-11.2c7.4,0.6,14.2,3.4,13.6,12.6c-0.5,7.6,5.2,17.8-8.8,20.3
		c-10.1,1.8-19.9,5.8-28.3,11.9c-7.7,5.6-11.2,13.2-7.7,22.7c3.5,9.4,10.8,12.9,20.6,12.2C166.6,431.3,173.9,425,181.3,417.7z
		 M341.6,386c0-1.7-0.1-3.3,0-5c0.9-11.7,3.1-23.3,15.1-28.2c11.4-4.6,20.3,1,27.8,10c5.2,6.2,6.5-1.9,9.3-3.7
		c3.8-2.5,2.8-5.2-1-7.5c-9.3-5.5-19.4-6.5-29.9-5.5c-20.8,2-36.8,19.5-38.3,41.9c-1.4,21.1,10.8,38.5,30.8,43
		c11.2,2.5,22.5,1.4,33.4-2.3c2.9-1,6.3-1.7,5.3-5.7c-1.4-5.6-5.1-1.2-7.1-0.8C357.4,429,341.3,416.3,341.6,386z"/>
	<path class="st1" d="M48.2,530.5c0-20,0-40,0-59.9c0-9.3-2.1-16.8-13.6-16.5c-2.6,0-4.6-0.2-4.4-3.7c0.2-2.9,2.2-2.8,4.2-2.8
		c27,0.4,54-1.8,80.9,1.7c42.1,5.5,63.2,31.7,60.6,74.2c-1,16.5-5.6,31.9-15,45.9c-12,17.9-28.7,27-50,28.7
		c-18.3,1.4-36.6,0.9-54.9,1.3c-6.2,0.1-7.9-1.7-7.8-7.9C48.6,571.1,48.3,550.8,48.2,530.5C48.3,530.5,48.3,530.5,48.2,530.5z
		 M68.3,516.6c0,18.3,0.1,36.6-0.1,54.9c-0.1,8.8,3.7,15,11.9,17.6c21.2,6.6,46,4.2,61.3-17.8c17.8-25.6,16.5-69-2.4-93.9
		c-17.4-23-42.1-24-67.5-23.3c-5.1,0.1-3.2,4.3-3.2,6.8C68.2,479.4,68.2,498,68.3,516.6z"/>
	<path class="st2" d="M601.2,602.1c-32.1-0.2-55.3-24.9-54.8-58.4c0.5-33.1,23.6-56.8,55.5-56.9c32.5-0.1,56.2,24.7,55.8,58.6
		C657.5,578.6,633.9,602.3,601.2,602.1z M635.6,544.7c-0.6-13-2.1-25.8-9.6-37c-12.2-18.2-34.8-18.5-47.4-0.7
		c-13.4,18.9-13.2,56.9,0.5,75.7c12.2,16.9,34,16.8,46.2-0.1C633.3,571.2,634.9,558.1,635.6,544.7z"/>
	<path class="st2" d="M259.3,581.6c-7.9,8.3-16,16.1-27.4,19.1c-14.7,3.9-27.8-0.9-33.2-12.7c-5.8-12.7-1.4-25.6,11.8-34.2
		c10.7-7,22.6-11.4,35-13.9c11-2.2,15.1-7.6,13-18.3c-0.3-1.6-0.1-3.3-0.2-5c-0.5-16.5-12.4-25-28.3-20.2c-6,1.8-9.4,5.7-9.9,12.2
		c-0.4,5.4-14.8,14.8-19.7,12.8c-3.5-1.4-1.8-4.5-1-6.8c5.3-16,18-23,33.2-26.7c3.2-0.8,6.6-1,9.9-1.3c23.9-1.8,33.9,7.3,34.3,31.2
		c0.4,18.9-1.1,37.9,0.9,56.8c1.4,13.1,3.2,14.8,16.4,16.5c1.9,0.2,4.2-0.6,4.6,2.3c0.4,2.9-1.6,3.8-3.8,5
		C279,607.3,267.7,602.1,259.3,581.6z M258.4,558.9c0-4.9-0.1-8.2,0-11.5c0.1-3-1-4.5-4.1-3.5c-11,3.5-22.4,6.3-31.6,13.8
		c-7.6,6.3-8.6,18.2-3,26.1c5.2,7.3,15,8.8,24.1,3.7C255.7,580.9,259.7,570.4,258.4,558.9z"/>
	<path class="st2" d="M863.9,581.3c-10.5,11.5-21.3,20.7-37,20.8c-11.7,0.1-20.7-5.6-24.4-15.5c-3.9-10.4-1.2-21.6,7.4-29
		c11.2-9.5,25.1-13.5,38.7-17.6c14.5-4.4,18.7-14.7,13.2-33c-2.7-8.8-16-14-27.3-10.5c-6.9,2.1-10,7.1-10.5,14.2
		c-0.3,4.1-15.9,13-19.4,10.9c-3.4-2.1-1.5-5.8-0.6-8.1c5.8-14.6,17.8-21.7,32.4-25.3c3.5-0.9,7.2-1.1,10.9-1.3
		c23.8-1.6,34,7.9,34.2,31.7c0.1,18-0.1,36,0.4,54c0.4,14.6,2.7,16.8,17.2,18.8c2,0.3,4.2-0.3,4.3,2.7c0.1,2.3-1.6,3.3-3.4,4.4
		C884.6,607.8,871,601.9,863.9,581.3z M863.1,557.6c0-4.2-0.1-6.9,0-9.5c0.1-3.2-0.7-5.3-4.5-4.1c-10.4,3.2-21,6.2-30,12.6
		c-8.3,5.9-10.2,18.4-4.7,26.7c5.4,8.1,16,9.6,25.6,3.7C861.1,579.8,863.8,568.7,863.1,557.6z"/>
	<path class="st2" d="M374.5,574.6c11-23.4,21.2-44.5,31-65.9c2.7-5.8,2.8-11.3-5.5-12.6c-2.3-0.4-3.7-1.2-3.5-3.8
		c0.3-2.9,2.6-2.5,4.5-2.5c8.3-0.1,16.6,0,25,0c2,0,4.1-0.2,4.2,2.8c0,1.8-0.4,3.1-2.5,3.5c-8,1.7-10.5,8.6-13.5,14.8
		c-17.4,35.4-34.3,71.1-52,106.4c-10.6,21.1-26.8,29-49.8,26.7c-7.7-0.8-7.6-3-4.5-9.1c3.6-7,7.4-9.8,16-8.5
		c17.5,2.6,37-12.6,40-29.4c0.5-2.6-0.8-4.5-1.8-6.5c-12.6-26.3-25.2-52.7-38.1-78.8c-3.1-6.4-5.7-13.8-14.2-15.6
		c-2.1-0.5-2.5-1.8-2.4-3.6c0.2-3,2.4-2.6,4.4-2.6c12.3,0,24.6,0,36.9,0c2,0,4,0,4,3c0,2.7-1.6,3.2-3.8,3.4
		c-5.2,0.3-8.9,2.8-6.5,8.2C352.6,527.4,363.2,550.1,374.5,574.6z"/>
	<path class="st3" d="M91,367.2c3,1.4,5.8,2.5,8.4,3.8c14.1,7.2,21.1,20.1,18.5,34.2c-2.5,13.4-13.5,23-30.2,24.4
		c-11.2,1-22.6,0.2-33.9,0.5c-6.6,0.2-5.4-4.3-5.4-8.1c0-27.6,0.1-55.2,0-82.7c0-8.2,1.7-17.5-10.9-18.3c-1.3-0.1-2.4-1.3-2.2-2.8
		c0.2-1.6,1.6-2,2.9-2c20.2,0.6,40.7-2.6,60.6,1.8c17.3,3.9,21,24.3,7.9,38.2C102.3,360.8,96.4,363.3,91,367.2z M63.9,393.7
		C63.9,393.7,63.9,393.7,63.9,393.7c0.1,6,0.1,11.9,0.1,17.9c0,4.3,1.4,8,5.2,10.1c7.7,4.3,15.8,5,23.8,1.1
		c7.2-3.4,10.6-9.8,11.2-17.6c1.3-16.2-10.9-29.7-29-33.5c-8.4-1.8-12.8-0.9-11.4,9C64.4,385,63.9,389.4,63.9,393.7z M63.9,342.9
		c0,6,0,12,0,18c0,3,0.7,4.7,4.2,5.3c14,2.5,27.9-6.2,31.1-20.2c1.8-7.7,0.5-14.9-6.2-19.7c-7.9-5.6-18-7.6-26.6-4.8
		c-6,2-1.5,10.7-2.5,16.3C63.6,339.5,63.9,341.2,63.9,342.9z"/>
	<path class="st2" d="M734.6,577c10.1-24.5,19.2-46.5,28.2-68.6c2.5-6.2,2-11.3-6.2-12.2c-2.4-0.3-4.8-0.3-4.5-3.7
		c0.2-3,2.5-2.6,4.4-2.6c9.3-0.1,18.7,0,28,0c2,0,4.2-0.2,4.2,2.8c0,1.9-0.7,3-2.6,3.5c-8.6,2.4-10.9,10.2-14,17.1
		c-11.7,26.4-23,53-34.8,79.3c-1.5,3.4-1.1,9.1-7.2,9.4c-6.3,0.3-6.2-5.4-7.9-8.8c-12.4-25.3-24.3-51-36.9-76.2
		c-4.1-8.3-6.5-18.7-17.8-21.2c-1.8-0.4-1.6-1.9-1.6-3.2c-0.1-2.1,1.1-2.8,3.1-2.8c13,0,26,0,39,0c1.6,0,3.3,0.2,3.5,2.5
		c0.2,2.5-1.1,3.5-3.4,3.7c-5.2,0.5-10,1.8-6.9,8.5C711.8,528.2,722.7,551.5,734.6,577z"/>
	<path class="st2" d="M521,513.7c-3.3-3.7-6.2-7.8-9.8-11.1c-15.6-14.3-36.6-10.9-45.5,8.3c-9.1,19.6-9.1,40.1,0.1,59.8
		c8.9,19,29.1,25.4,54.3,18.5c3.2-0.9,6.2-2,9.5-3c2.9,6.7,0.2,9.8-6,11.6c-13.9,3.9-28,6.2-42.3,3.4c-28.2-5.6-44-26.7-43.2-57.1
		c0.7-28.1,20.9-51.8,47.6-56c14.9-2.3,29.1-0.8,42.5,6.7c5.6,3.1,7.3,5.9,1.6,10.6C526.6,507.6,524,510.7,521,513.7z"/>
	<path class="st2" d="M913.7,451.8c11.7-4.4,23.4-8.8,36.1-13.5c0,13.4,0,25.6,0,37.8c0,33.3,0.1,66.5,0,99.8
		c0,9.3,1.9,16.7,13.3,16.9c2.3,0,5,0.1,4.7,3.6c-0.3,3.6-3.1,2.8-5.2,2.8c-14.6,0.1-29.3,0-43.9,0c-2.3,0-5,0.5-5.2-2.9
		c-0.2-3.4,2.6-3.5,4.8-3.5c10.4,0,12.9-7.1,13-15.3c0.2-34.6-0.1-69.2,0-103.8C931.3,461.7,923.3,457.1,913.7,451.8z"/>
	<path class="st3" d="M218.3,356.7c8.9-3.4,15.1-5.5,21.1-8.3c6.3-2.9,9.4-2.1,8.4,5.5c-0.2,1.6,0.2,3.3,0.3,5.5
		c5.3-0.6,8-4.9,11.7-7.2c9.5-5.9,19.5-9.4,30.1-3.9c10.3,5.3,11.8,15.5,12.1,25.7c0.3,12.6,0.1,25.3,0.2,38
		c0,6.5,1.2,12.1,9.3,12.8c1.9,0.2,4.3,0.7,3.7,3.5c-0.4,2.2-2.6,1.7-4.1,1.7c-10.7,0.1-21.3,0.1-32,0c-1.5,0-3.7,0.5-4.1-1.8
		c-0.5-2.8,2-3.2,3.8-3.4c7.4-0.7,9.2-5.7,9.2-11.9c0.1-12.7,0.4-25.3-0.1-38c-0.5-14.5-7.5-19.7-21.6-16.8
		c-14.7,3-18.6,7.8-18.6,22.7c0,10.7,0,21.3,0,32c0,6.1,0.9,11.5,8.8,11.9c2,0.1,4.4,0.6,4.1,3.2c-0.3,2.8-3,2.1-4.8,2.1
		c-10,0.1-20,0.1-30,0c-2,0-5.3,1.1-5.5-2.4c-0.2-2.5,2.5-2.9,4.4-3c6.8-0.3,8.3-5.2,8.4-10.3c0.3-14.3,0-28.6,0-42.9
		C233.2,363.3,227.5,360,218.3,356.7z"/>
	<path class="st3" d="M447.8,432.1c-24.5-0.1-41.7-18.2-41.5-43.7c0.2-25.4,17.6-42.8,42.5-42.6c23.9,0.2,41.1,18.2,41.1,43.1
		C489.9,414.2,472.3,432.2,447.8,432.1z M472.6,389.2c0.3-9.7-1.1-18.8-6.2-27c-9.1-14.5-26.6-14.9-36.1-0.7
		c-9.2,13.7-9.2,41.5,0.1,55.2c9.3,13.7,26.6,13.7,35.6-0.1C471.4,408.1,472.9,398.7,472.6,389.2z"/>
	<path class="st3" d="M181.3,417.7c-7.4,7.3-14.7,13.6-25.1,14.4c-9.7,0.7-17-2.8-20.6-12.2c-3.6-9.5,0-17.1,7.7-22.7
		c8.4-6.1,18.2-10.1,28.3-11.9c13.9-2.5,8.3-12.7,8.8-20.3c0.5-9.2-6.2-11.9-13.6-12.6c-7.9-0.7-13.3,2.2-14.7,11.2
		c-1.2,7.8-8.9,6.7-14.2,7.8c-2.6,0.5-1.7-3.7-1-5.7c2.3-6.6,7.2-11,13-14.6c10-6.1,20.9-6.4,31.9-4.2c7.6,1.5,11.7,7,12.6,14.9
		c1.7,14.6,0.3,29.3,1,43.9c0.4,9-0.3,19,13.4,18.5c1.5-0.1,2.9,0.9,2.4,2.3c-0.5,1.4-1.9,2.6-3.3,3.4
		C197.7,435.8,188.7,431.9,181.3,417.7z M181.5,396.4c-2.3-1.5,3.4-8.9-4.1-7.5c-8,1.5-16.1,4.4-22.7,9.8
		c-5.6,4.6-6.7,14.5-2.4,19.9c5,6.3,11.2,6,17.8,2.6C180,416.1,181.1,406.9,181.5,396.4z"/>
	<path class="st3" d="M98.4,681.6c-14.3,0.1-28.6,0-42.9,0.4c-5.8,0.2-7.4-2-7.2-7.5c0.3-11.6,0.4-23.3,0-34.9
		c-0.2-5.8,1.9-7.5,7.5-7.4c14.3,0.4,28.6,0.4,42.9,0.5C98.5,649,98.5,665.3,98.4,681.6z"/>
	<path class="st1" d="M98.4,681.6c0.1-16.3,0.2-32.6,0.2-48.9c13.6-0.1,27.2,0,40.8-0.4c5.9-0.2,8.3,1.4,8.1,7.8
		c-0.4,11.6-0.5,23.2,0,34.8c0.2,5.9-1.9,7.2-7.4,7C126.3,681.6,112.3,681.7,98.4,681.6z"/>
	<path class="st3" d="M341.6,386c-0.3,30.4,15.8,43,45.5,36.2c2-0.5,5.7-4.8,7.1,0.8c1,4-2.4,4.7-5.3,5.7
		c-10.9,3.7-22.2,4.8-33.4,2.3c-20-4.5-32.2-21.9-30.8-43c1.5-22.4,17.5-40,38.3-41.9c10.4-1,20.5,0,29.9,5.5c3.9,2.3,4.8,4.9,1,7.5
		c-2.7,1.8-4.1,9.9-9.3,3.7c-7.5-9-16.5-14.6-27.8-10c-12,4.9-14.3,16.5-15.1,28.2C341.5,382.6,341.6,384.3,341.6,386z"/>
	<path class="st4" d="M68.2,516.6c0-18.6-0.1-37.2,0.1-55.8c0-2.5-1.9-6.6,3.2-6.8c25.4-0.6,50,0.3,67.5,23.3
		c18.9,24.9,20.2,68.3,2.4,93.9c-15.3,22-40.2,24.4-61.3,17.8c-8.1-2.5-11.9-8.8-11.9-17.6C68.4,553.2,68.3,534.9,68.2,516.6z"/>
	<path class="st5" d="M635.6,544.7c-0.7,13.4-2.3,26.5-10.4,37.9c-12.1,17-34,17-46.2,0.1c-13.6-18.8-13.8-56.8-0.5-75.7
		c12.6-17.8,35.2-17.5,47.4,0.7C633.5,518.9,635,531.7,635.6,544.7z"/>
	<path class="st5" d="M258.4,558.9c1.2,11.4-2.7,22-14.5,28.7c-9.1,5.1-18.8,3.5-24.1-3.7c-5.7-7.9-4.7-19.8,3-26.1
		c9.1-7.5,20.5-10.3,31.6-13.8c3.1-1,4.2,0.5,4.1,3.5C258.4,550.7,258.4,554,258.4,558.9z"/>
	<path class="st5" d="M863.1,557.6c0.7,11.1-2,22.2-13.7,29.3c-9.6,5.9-20.2,4.4-25.6-3.7c-5.5-8.3-3.6-20.7,4.7-26.7
		c9-6.4,19.6-9.4,30-12.6c3.8-1.2,4.6,0.9,4.5,4.1C863,550.8,863.1,553.4,863.1,557.6z"/>
	<path class="st5" d="M63.9,393.7c0-4.3,0.5-8.7-0.1-12.9c-1.4-9.9,3-10.8,11.4-9c18.1,3.8,30.3,17.4,29,33.5
		c-0.6,7.8-4,14.1-11.2,17.6c-8,3.8-16.1,3.2-23.8-1.1c-3.8-2.1-5.2-5.8-5.2-10.1C64,405.6,64,399.6,63.9,393.7
		C63.9,393.7,63.9,393.7,63.9,393.7z"/>
	<path class="st5" d="M63.9,342.9c0-1.7-0.3-3.4,0-5c1-5.6-3.5-14.4,2.5-16.3c8.6-2.8,18.7-0.9,26.6,4.8c6.7,4.7,8,12,6.2,19.7
		c-3.3,14-17.2,22.7-31.1,20.2c-3.6-0.6-4.3-2.4-4.2-5.3C63.9,354.8,63.9,348.9,63.9,342.9z"/>
	<path class="st4" d="M472.6,389.2c0.4,9.6-1.2,19-6.7,27.3c-9,13.8-26.4,13.8-35.6,0.1c-9.3-13.7-9.3-41.5-0.1-55.2
		c9.5-14.1,27-13.8,36.1,0.7C471.5,370.4,472.8,379.5,472.6,389.2z"/>
	<path class="st5" d="M181.5,396.4c-0.4,10.5-1.4,19.7-11.3,24.8c-6.6,3.4-12.8,3.7-17.8-2.6c-4.3-5.4-3.2-15.3,2.4-19.9
		c6.6-5.4,14.6-8.2,22.7-9.8C184.9,387.5,179.1,394.9,181.5,396.4z"/>
</g>
</svg>
