<?xml version="1.0" encoding="UTF-8"?>
<!DOCTYPE svg PUBLIC "-//W3C//DTD SVG 1.1//EN" "http://www.w3.org/Graphics/SVG/1.1/DTD/svg11.dtd">
<!-- Creator: CorelDRAW 2021 (64 Bit) -->
<svg xmlns="http://www.w3.org/2000/svg" xml:space="preserve" width="91.44mm" height="91.44mm" version="1.1" style="shape-rendering:geometricPrecision; text-rendering:geometricPrecision; image-rendering:optimizeQuality; fill-rule:evenodd; clip-rule:evenodd"
viewBox="0 0 9144 9144"
 xmlns:xlink="http://www.w3.org/1999/xlink"
 xmlns:xodm="http://www.corel.com/coreldraw/odm/2003">
 <defs>
  <style type="text/css">
   <![CDATA[
    .fil0 {fill:#FEFEFE}
   ]]>
  </style>
 </defs>
 <g id="Camada_x0020_1">
  <metadata id="CorelCorpID_0Corel-Layer"/>
  <g id="_3229260449744">
   <path class="fil0" d="M7267.61 5874.66c-609.98,126.32 -432.9,972.99 228.01,842.81 220.98,-43.53 433.12,-270.62 348.46,-539.84 -65.27,-207.54 -295.74,-361.1 -576.47,-302.97z"/>
   <path class="fil0" d="M5673.74 5943.47l-0.6 765.08c126.22,4.24 604.26,2.65 739.03,-1.26 -75.21,-146.09 -96.96,-275.83 -219.3,-383.03 63.97,-53.12 119.04,-75.38 133.29,-171.57 52.08,-351.72 -519.44,-302.87 -653.02,-270.45l0.6 61.23z"/>
   <g>
    <path class="fil0" d="M4754.49 5900.2c-526.31,134.36 -382.92,975.28 246.74,835.57 553.61,-122.83 383.8,-996.54 -246.74,-835.57zm75.53 104.3c-444.8,77.63 -319.45,714.87 130.58,627.06 379.49,-74.05 304.04,-702.92 -130.58,-627.06z"/>
    <path class="fil0" d="M2230.06 6739.82l129.15 0 8.72 -363.82c185.07,-6.29 317.02,218.93 374.42,362.82l146.64 1.75c-2.2,-4.58 -5.93,-16.47 -7.32,-13.69l-28.54 -49.33c-13.77,-21.9 -19.76,-29.54 -33.83,-49.96 -78.78,-114.36 -97.29,-178.43 -212.84,-281.95 11.87,-13.5 236.01,-169.71 84.08,-359.53 -83.31,-104.09 -276.16,-89.09 -441.54,-89.09 -12.11,111.46 -21.61,747.83 -18.94,842.8zm136.49 -476.65c122.8,6.07 244.58,-4.24 244.13,-134.59 -0.43,-126.72 -115.63,-133.3 -238.85,-127.46l-5.28 262.05z"/>
    <path class="fil0" d="M3826.99 6737.52l117.14 0.6 4.17 -363.12c221.1,0.22 459.67,-25.1 406.47,-293.36 -41.82,-210.87 -293.51,-201.12 -525.29,-181.26l-2.49 837.14zm121.02 -470.79c130.92,0 277.72,16.59 286.64,-124.45 10.08,-159.38 -153.27,-137.82 -287.65,-137.98l1.01 262.43z"/>
    <path class="fil0" d="M1570.88 6720.42c191.05,68.64 328.36,8.78 494.19,-33.32l-0.04 -362.31 -285.17 0.81 0.54 104.94 159.08 4.1 2.51 172.71c-127.39,42.46 -271.62,54.64 -376.54,-15.64 -243.25,-162.95 -167.9,-516.41 90.17,-586.32 147.4,-39.92 276.54,32.35 391.7,69.56l1.99 -121.37c-223.33,-57.55 -417.3,-159.22 -656.37,90.38 -219.61,229.29 -93.2,579.06 177.94,676.46z"/>
    <path class="fil0" d="M3663.45 5901.24l-116.68 -2.17c-27.45,394.53 98.84,745.3 -244.8,743.65 -344.22,-1.64 -217.25,-327.41 -243.94,-739.31l-117.27 -6.09c-10.51,114.8 -13.6,485.79 3,591.57 55.34,352.72 646.75,348.22 712.92,11.11 19.97,-101.75 15.92,-485.66 6.77,-598.76z"/>
   </g>
   <polygon class="fil0" points="6522.12,6716.33 6733.36,6715.94 6732.59,5878.88 6521.3,5872.57 "/>
   <path class="fil0" d="M3153.59 5553.17l574.09 0c63.58,-57.38 127.8,-117.83 161.24,-192.51 -128.56,-14.76 -130.95,21.48 -218.17,31.81 -78.58,9.3 -50.51,-70.08 -189.69,-56.08 -77.42,7.79 -285.79,145.3 -327.47,216.78z"/>
   <path class="fil0" d="M5182.12 2583.62c-21.14,4.69 -40.4,1.82 -61.86,3.93 -26.8,2.63 -26.58,15.08 -46.18,17.59l-122.15 2.87 -30.48 -0.85 -27.69 1.36c-1.52,1.52 -1.7,2.13 -8.47,1.43 -8.87,-0.91 -18.78,-7.37 -22.41,-11.92 -4.68,-0.55 -14.78,-5.39 -21.98,-7.15 -8.22,-2.02 -15.63,-3.01 -24.21,-4.25 -14.52,-0.72 -29.34,-1.89 -39.05,4.88 -0.6,6.88 0.11,6.4 2.79,11.37l-31.47 0.43c-23.79,2.37 -14.34,8.01 -15.79,12.07 -1.76,4.94 -6.7,1.37 -2.36,11.05 1.87,4.17 -5.84,11.23 8.67,14.68 3.42,0.81 6.26,1.02 9.59,1.29 20.78,0.18 15.82,-1.23 20.87,3.84 6.61,6.65 9.11,2.71 14.71,6.49l122.15 -2.62c2.31,15.15 1.02,21.84 7.86,35.43 10.57,20.97 44.83,54.82 64.33,66.78 12.48,2.72 16.18,2.7 29.31,1.28 7.61,-1.82 15.83,-4.48 23.35,-4.33 11.52,-9.79 71.94,-7.05 91.25,2.6 0.23,0.11 0.8,0.86 0.97,0.59 0.17,-0.28 0.67,0.38 0.97,0.61 6.95,0.01 63.4,22.59 68.95,26.39 1.25,33.81 -9.08,163.2 2.89,180.59 6.85,9.93 26.55,21.59 25.38,38.85 -1.39,20.68 -4.59,36.76 -3.87,59.16 1.19,37.49 5.08,30.27 14.27,49.54 7.67,16.08 3.85,95.99 2.78,119.17 -0.17,7.93 1.37,27.78 -1.8,33.12 1.48,6.41 0.66,13.77 0.34,20.45 -0.18,7.36 0.72,35.5 -1.92,39.43l0.37 14.14 -5.01 161.92 -0.45 13.36c-135.31,45.78 -90.53,208.98 -101.29,357.76l525.27 -0.03c-0.51,-11.75 -4.74,-34.2 -2.11,-44.04 -1.99,-3.34 -1.2,-1.99 -1.69,-6.78 -0.3,-2.9 -0.38,-6.4 -0.58,-9.38 -0.39,-5.78 -0.83,-11.6 -1.16,-17.48 -0.94,-7.25 -2.17,-15.96 -0.77,-23.04 -3.68,-5.89 -2.52,-20.67 -2.97,-28.77 -0.52,-4.86 -1.52,-11.2 -0.03,-16.25 -0.19,-0.32 -0.38,-1.18 -0.44,-1 -7.97,-103.1 17.51,-174.74 -91.85,-211.03 -3.71,-26.38 -9.27,-143.1 -11.56,-179.31 -0.64,-10.23 -7.01,-52.65 -1.67,-57.66 5.75,-5.39 14.03,-2.11 16.72,-15.11 1.44,-6.94 -0.79,-52.83 -1.81,-61.63 -1.85,-16.02 -7.89,-11.91 -11.82,-20.93 -4.89,-11.2 3.81,-16.97 7.66,-22.26 6.5,-8.95 -4.38,-13.66 6.56,-26.05 8.53,-9.66 3.5,-45.46 2.52,-59.22l0.73 -5.81c-0.18,-0.34 -0.34,-0.79 -0.42,-1.06l-3.28 -49.83c-1.76,-38.98 -5.31,-119.25 -9.24,-151.77l-1.91 -77.71c0.83,-3.83 9.83,-5.87 16.76,-8.64 12.18,-4.85 43.49,-19.02 52.26,-19.08l10.57 -4.21c11.62,-2.99 21.95,-4.89 34.2,-5.52 11.22,-0.58 41.22,-0.23 48.36,5.91 6.2,-0.22 13.68,2.21 19.32,3.73 15.71,1.85 18.05,2.16 33.5,-0.63 16.05,-10.38 20.21,-16.69 32.45,-28.02 15.15,-14.03 14.55,-11.88 28.37,-32.14 2,-4.77 4.32,-8.04 6.28,-13.38 1.06,-2.9 1.34,-4.3 2.09,-7.29l2.71 -7.47 0.26 -13.9c22.55,-1.24 39.86,1.14 61.25,1.79 11.19,0.34 58.08,-1 63.87,0.52l3.44 -1.65c21.2,-8.96 -2.45,-8.11 29.47,-8.36 25.57,-3.29 16.74,-9.88 17.06,-14.06 0.07,-0.91 2.04,-3.17 2.87,-6.97 -1.84,-4.29 -3.92,-4.77 -4.33,-5.99 -0.8,-2.32 1.22,-2.7 -0.06,-8.79 -4.47,-1.41 -9.94,-2.73 -15.94,-3.38l-31.3 -0.7c1.66,-3.76 3.2,-5.24 2.78,-11.1 -10.03,-6.7 -24.24,-5.6 -39.1,-4.8 -15.32,2.05 -29.01,4.45 -41.99,10.41 -12.05,5.53 -20.25,16.54 -36.76,11.89 -21.89,-6.16 -73.59,2.07 -100.64,-0.29 -16.77,-1.47 -31.77,-2.81 -49.38,-2.9 -18.38,-0.1 -32.83,1.88 -45.83,-7.33 -31.18,-22.07 -76.21,-4.99 -88.94,-15.3 -6.17,-2.3 -9.92,-5.97 -17.63,-8.78 -16.32,-5.95 -50.32,-4.06 -69.19,-5.13 -41.55,-2.34 -36.05,-22.83 -37.11,-57.68 -0.27,-8.88 -4.24,-14.58 -4.49,-20.09 -0.21,-4.79 2.59,-13.97 3.06,-19.97 2.84,-36.24 -19.26,-81.63 -63.6,-80.63 -28.69,0.65 -46.99,21.53 -55.03,42.71 -4.89,12.86 -7.05,27.19 -5.22,41.74 0.78,6.2 3.74,13.12 1.97,19.47 -2.28,8.24 -3.81,9.5 -3.81,19.47 0,36.85 1.68,53 -39.9,55.14 -14.41,0.75 -74.69,-1.71 -82.16,14.22z"/>
   <path class="fil0" d="M7608.33 5560.52l-3725.82 0c133.11,-121.27 260.49,-339.73 384.87,-609.19 -57.47,12.9 12.43,-379.79 93.29,-563.93l365.13 -330.35c-44.6,-93.13 112.17,-230.99 408.61,-399.91l495.54 -17.39c108.88,71.56 197.41,160.06 260.81,269.5 227.95,-59.23 467.26,29.36 730.27,425.99 295.38,524.37 627.23,924.41 987.3,1225.28z"/>
   <path class="fil0" d="M2255.36 4270.93c-269.84,-259.01 -590.88,-159.53 -921.05,3.76 302.01,40.1 975.51,-1.47 906.02,120.3 -58.1,61.34 -4.32,77.92 135.34,60.15l921.05 -116.54c68.98,-20.11 111.13,-13.39 120.3,26.32 -25.29,78.05 541.24,62.65 809.41,93.98 27.34,-190.48 107.01,-160.4 160.51,-240.6l229.33 -203.01c8.82,-75.72 44.05,-139.7 97.74,-195.48 -114.6,-72.55 -235.1,-92.12 -364.66,-30.08 -42.41,-193.23 -108.81,-340.69 -214.28,-413.53 -112.34,-94.58 -284.04,-82.1 -353.39,67.67 -53.33,143.31 -75.41,283.48 -71.43,421.05 -352.89,215.46 -767.91,320.12 -1097.74,421.05l-357.15 -15.04z"/>
  </g>
 </g>
</svg>
