<?xml version="1.0" encoding="utf-8"?>
<!-- Generator: Adobe Illustrator 26.0.2, SVG Export Plug-In . SVG Version: 6.00 Build 0)  -->
<svg version="1.1" id="Camada_1" xmlns="http://www.w3.org/2000/svg" xmlns:xlink="http://www.w3.org/1999/xlink" x="0px" y="0px"
	 viewBox="0 0 37.3 51.3" style="enable-background:new 0 0 37.3 51.3;" xml:space="preserve">
<style type="text/css">
	.st0{fill-rule:evenodd;clip-rule:evenodd;fill:#4158D0;}
</style>
<path class="st0" d="M1.4,37.3H14V50L1.4,37.3z M37.3,2.3V49c0,1.3-1,2.3-2.3,2.3c0,0,0,0,0,0H18.7V35c0-0.6-0.2-1.2-0.7-1.7
	c-0.4-0.4-1-0.7-1.6-0.7H0V2.3c0-0.6,0.2-1.2,0.7-1.6C1.1,0.2,1.7,0,2.3,0H35c0.6,0,1.2,0.2,1.7,0.7C37.1,1.1,37.3,1.7,37.3,2.3z
	 M12,26V7h9.5c3.2,0.8,8,4,2,10l5.5,9H12z"/>
</svg>
